<?xml version="1.0" encoding="utf-8"?>
<!-- Generator: Adobe Illustrator 28.0.0, SVG Export Plug-In . SVG Version: 6.00 Build 0)  -->
<svg version="1.1" id="Layer_1" xmlns="http://www.w3.org/2000/svg" xmlns:xlink="http://www.w3.org/1999/xlink" x="0px" y="0px"
	 viewBox="0 0 460.3 273.7" style="enable-background:new 0 0 460.3 273.7;" xml:space="preserve">
<style type="text/css">
	.st0{fill-rule:evenodd;clip-rule:evenodd;fill:#FFFFFF;}
	.st1{fill:#FFFFFF;}
</style>
<g>
	<path class="st0" d="M210,36.2L195,36.3l0.2,8.4l14.9,0.2l0,9.4l-14.9,0.1l-0.1,8.4l15.4,0.3l0,56c0,9.6,0.4,10.8,10.4,9l0-73.4
		l16.1-0.1l0.3,74c12.6,0.8,10,0.3,10-28.4l0-33c0.7-7.5,2.3-2.8,11.7-4.1c4.3-0.6,3.8,2.8,4-8.9l-15.2-0.1l0-9.5l15.2-0.2l0-8.4
		l-15.4-0.3l-0.3-35.1c-14.9,7.2-8.9,30.4-10.3,43.5l-16,0c-0.8-9.2,0.2-18.9-0.2-27.9c-0.2-5.3-7.7-15-10.3-16.3L210,36.2z"/>
	<g>
		<path class="st0" d="M258.9,190c6.6,24.6,48.9,18.9,42.2-11.5c-2.2-10-14.1-18.5-27-14.8C264.8,166.4,255.3,176.5,258.9,190
			 M275.2,172.4c7.9-3.9,15.2,1.3,17.3,6.7c3,8.1-0.9,14.6-6.7,17.1C270.8,202.6,256.9,181.4,275.2,172.4z"/>
		<path class="st0" d="M316,170l0,34.5l7.7,0.6l0.2-16.7c7.3-1.6,8.1,3.2,10.7,8.4c4.1,8.3,2.6,8.3,13.3,8.4
			c-1.7-7.3-7.4-13.2-9.9-20.2c0.9-1.7,10.3-13.9-1.7-19.8c-3.6-1.8-8.5-1.9-12.9-1.9C315.3,163.2,316,162.8,316,170 M324.2,179.4
			c-0.3-3.6-1.2-7,1.6-8c3.9-1.4,6.4,1,7.8,2.6C333.3,179.8,330.1,180.6,324.2,179.4z"/>
		<polygon class="st0" points="221.1,188.2 237.2,188.5 237.4,205.1 245.4,204.7 245.4,163.9 237,164.1 237,179.6 220.4,179.8 
			220.5,163.9 212.7,163.9 212.8,204.8 220.8,204.8 		"/>
		<path class="st0" d="M397.8,204.5l23,0.4c0.9-11.5-3.1-7.1-14.4-7.8l-0.1-9.1l13.6-0.2l0.1-7.4l-13.3-0.6l-0.2-8.3l14.1-0.2
			c0.4-7.4,1.4-7.8-6.1-7.7c-5.1,0-11.4-0.2-16.3,0.3L397.8,204.5z"/>
		<path class="st0" d="M435.3,192.8c-0.5,5.5-1,8.7,3.2,10.8c10,5.1,24.5-0.7,21.3-14.2c-2.3-9.5-11.1-7.2-15.4-11.7
			c-3.2-3.4-1.1-7,3.6-6.7c2.5,0.1,6.7,2.4,10,3.1c0-8.4-0.7-11.5-10.9-11.2c-6.6,0.2-10.9,3.8-12.3,8.8
			c-5,17.8,22.1,14.1,15.4,23.5C445.6,200.2,440.3,194.5,435.3,192.8"/>
		<path class="st0" d="M374.5,196.1c-6.8,2-10-1.1-15.4-3.2c-0.3,9.5,0.6,12.2,10.3,12.4c7.2,0.2,12.3-3.4,13.7-8.6
			c5.4-19.8-21.7-12.9-14.5-25.4c5.2-0.7,8.5,1.6,12.9,3l0.2-8.2c-10.1-6.2-23.2-3.2-23.4,9C357.9,190,378.2,184.3,374.5,196.1"/>
	</g>
	<g>
		<polygon class="st0" points="159.3,171.3 174.1,171.2 174.1,163.8 150.8,163.9 150.9,205 174,205 173.8,196.9 159.2,196.6 
			159.1,188 173,187.9 173,179.8 159.2,179.6 		"/>
		<polygon class="st0" points="8.4,171.3 23,171 23.2,163.8 0,163.9 0.2,205 23.2,204.9 23,197.1 8.2,196.8 8.2,187.9 22.3,187.8 
			22.2,180 8.1,179.9 		"/>
		<polygon class="st0" points="115.7,204.9 124.2,204.9 124.4,171.3 133.9,171.1 134,163.8 105.4,163.8 105.6,171.1 115.4,171.6 		
			"/>
		<polygon class="st0" points="39.4,205 63.4,205 62.9,197.3 47.3,196.8 47.3,163.8 39.3,164.2 		"/>
		<polygon class="st0" points="80.3,204.9 87.7,204.8 87.8,163.9 80.2,164.1 		"/>
	</g>
	<g>
		<path class="st1" d="M232.2,239.8c0.3-1.7,1.6-2.4,3.9-2.1l-0.1,23c-0.5,2.6-2,3-4,2.4L232.2,239.8z"/>
		<path class="st1" d="M219.2,240.3c0.2-2.1,1.7-2.6,3.9-2.3V263H135c-0.2,9.4-4.7,11.7-11.4,10.2c-3-1.2-5-3.7-6-7.5
			c-0.3-0.8,0.2-1.2,0.7-1.4c2.9,1.2,5.4,2.8,7.3,4.9c2.4,0,5-1.4,4.9-7.2l0.7-24.1l3.4,0.1l-0.1,20.8l14.6,0.4l0.4-11.1
			c0.4-2.6,2.1-2.5,3.9-2.2l-0.4,13.3l47.3-0.3c-0.5-11.6-3.3-9.8-15.2-9.9l0.2-3.1c7.6,0.1,17.5-2.5,18.8,6.9l0.3,6.2l14.5,0.1
			L219.2,240.3z"/>
		<path class="st1" d="M190.6,237.8c1.6,0,2.9,1.2,2.9,2.6c0,1.4-1.3,2.6-2.9,2.6c-1.6,0-2.9-1.2-2.9-2.6
			C187.7,239,189,237.8,190.6,237.8z"/>
		<path class="st1" d="M147.1,267.9c1.6,0,2.9,1.2,2.9,2.6c0,1.4-1.3,2.6-2.9,2.6c-1.6,0-2.9-1.2-2.9-2.6
			C144.2,269.1,145.5,267.9,147.1,267.9z"/>
		<path class="st1" d="M139.6,267.9c1.6,0,2.9,1.2,2.9,2.6c0,1.4-1.3,2.6-2.9,2.6c-1.6,0-2.9-1.2-2.9-2.6
			C136.7,269.1,138,267.9,139.6,267.9z"/>
	</g>
	<g>
		<path class="st1" d="M316.9,237.7c1.6,0,2.9,1.2,2.9,2.6c0,1.4-1.3,2.6-2.9,2.6c-1.6,0-2.9-1.2-2.9-2.6
			C313.9,238.9,315.3,237.7,316.9,237.7z"/>
		<path class="st1" d="M337.9,237.7c1.6,0,2.9,1.2,2.9,2.6c0,1.4-1.3,2.6-2.9,2.6c-1.6,0-2.9-1.2-2.9-2.6
			C335,238.9,336.3,237.7,337.9,237.7z"/>
		<path class="st1" d="M263.5,237.7c1.6,0,2.9,1.2,2.9,2.6c0,1.4-1.3,2.6-2.9,2.6c-1.6,0-2.9-1.2-2.9-2.6
			C260.6,238.9,261.9,237.7,263.5,237.7z"/>
		<path class="st1" d="M255.1,237.7c1.6,0,2.9,1.2,2.9,2.6c0,1.4-1.3,2.6-2.9,2.6c-1.6,0-2.9-1.2-2.9-2.6
			C252.2,238.9,253.5,237.7,255.1,237.7z"/>
		<path class="st1" d="M273.5,267.9c1.6,0,2.9,1.2,2.9,2.6c0,1.4-1.3,2.6-2.9,2.6c-1.6,0-2.9-1.2-2.9-2.6
			C270.5,269.1,271.8,267.9,273.5,267.9z"/>
		<path class="st1" d="M344.9,248l-0.1,12.2h-16v-8.6c-1-3.1-2.9-4.9-5.6-5.7h-12.4v3.8c5-0.2,9.9,0,14.2,2.3v7.8h-40.7v-13.6h-5.3
			v10.6c-0.1,1.4-0.6,2.5-1.5,2.9h-12.3v-13.9h-8.9c-2.8,0.7-4.3,2.2-4.9,4.2c-1.2,9.1,3.4,7.8,9.8,7.8c0.3,3.3,1.7,5,4.2,5.1H348
			v-17.2C345.9,245.9,344.9,246.6,344.9,248z M261.2,254.8c-8.1,1-7.8-7.2,0-5.7C261.2,251,261.2,252.9,261.2,254.8z"/>
	</g>
</g>
</svg>
